<svg width="21" height="20" fill="none" xmlns="http://www.w3.org/2000/svg"><g clip-path="url(#clip0)" fill="#2A263D"><path d="M14.59 0H5.416A5.42 5.42 0 00.003 5.414v9.172A5.42 5.42 0 005.417 20h9.172a5.42 5.42 0 005.414-5.414V5.414A5.42 5.42 0 0014.589 0zm-4.587 15.469A5.475 5.475 0 014.534 10a5.475 5.475 0 015.469-5.469A5.475 5.475 0 0115.472 10a5.475 5.475 0 01-5.47 5.469zm5.6-9.648a1.618 1.618 0 01-1.617-1.616c0-.891.725-1.616 1.616-1.616.891 0 1.616.725 1.616 1.616 0 .891-.725 1.616-1.616 1.616z"/><path d="M10.003 5.704A4.301 4.301 0 005.707 10a4.301 4.301 0 004.296 4.296A4.301 4.301 0 0014.3 10a4.3 4.3 0 00-4.296-4.296zm5.6-1.942a.444.444 0 100 .888.444.444 0 000-.888z"/></g><defs><clipPath id="clip0"><path fill="#fff" transform="translate(.003)" d="M0 0h20v20H0z"/></clipPath></defs></svg>